<svg width="46" height="46" viewBox="0 0 46 46" fill="none" xmlns="http://www.w3.org/2000/svg">
<path d="M16.4907 8.258C17.8362 4.3205 23.2767 4.20125 24.872 7.90025L25.007 8.26025L26.8227 13.5702C27.2389 14.788 27.9113 15.9024 28.7947 16.8382C29.6781 17.774 30.7519 18.5095 31.9437 18.995L32.432 19.1772L37.742 20.9908C41.6795 22.3363 41.7987 27.7767 38.102 29.372L37.742 29.507L32.432 31.3228C31.2138 31.7386 30.099 32.4109 29.1628 33.2943C28.2266 34.1777 27.4908 35.2517 27.005 36.4438L26.8227 36.9297L25.0092 42.242C23.6637 46.1795 18.2232 46.2987 16.6302 42.602L16.4907 42.242L14.6772 36.932C14.2614 35.7138 13.5891 34.599 12.7057 33.6628C11.8222 32.7266 10.7483 31.9908 9.55624 31.505L9.07024 31.3228L3.76024 29.5092C-0.17951 28.1637 -0.298759 22.7232 3.40024 21.1302L3.76024 20.9908L9.07024 19.1772C10.288 18.7611 11.4024 18.0887 12.3382 17.2053C13.274 16.3219 14.0095 15.2481 14.495 14.0562L14.6772 13.5702L16.4907 8.258ZM38.75 0.5C39.1709 0.499999 39.5834 0.618076 39.9406 0.840811C40.2978 1.06355 40.5853 1.38201 40.7705 1.76L40.8785 2.02325L41.666 4.33175L43.9767 5.11925C44.3986 5.26257 44.7684 5.52788 45.0393 5.88158C45.3101 6.23528 45.4699 6.66144 45.4984 7.10605C45.5268 7.55065 45.4226 7.99369 45.199 8.37902C44.9754 8.76435 44.6424 9.07461 44.2422 9.2705L43.9767 9.3785L41.6682 10.166L40.8807 12.4767C40.7372 12.8985 40.4717 13.2681 40.1178 13.5387C39.764 13.8094 39.3378 13.9689 38.8932 13.9971C38.4486 14.0253 38.0056 13.9209 37.6205 13.6971C37.2353 13.4733 36.9252 13.1402 36.7295 12.74L36.6215 12.4767L35.834 10.1683L33.5232 9.38075C33.1014 9.23744 32.7316 8.97212 32.4607 8.61842C32.1898 8.26472 32.0301 7.83856 32.0016 7.39395C31.9732 6.94935 32.0774 6.50631 32.301 6.12098C32.5246 5.73565 32.8576 5.42539 33.2577 5.2295L33.5232 5.1215L35.8317 4.334L36.6192 2.02325C36.771 1.57871 37.058 1.19279 37.4401 0.919622C37.8222 0.64645 38.2803 0.499718 38.75 0.5Z" fill="#53A4EC"/>
</svg>
