<svg width="48" height="48" viewBox="0 0 48 48" fill="none" xmlns="http://www.w3.org/2000/svg">
<path d="M8 37.3333C8 32 18.6667 29.0667 24 29.0667C29.3333 29.0667 40 32 40 37.3333V40H8M32 16C32 18.1217 31.1571 20.1566 29.6569 21.6569C28.1566 23.1571 26.1217 24 24 24C21.8783 24 19.8434 23.1571 18.3431 21.6569C16.8429 20.1566 16 18.1217 16 16C16 13.8783 16.8429 11.8434 18.3431 10.3431C19.8434 8.84286 21.8783 8 24 8C26.1217 8 28.1566 8.84286 29.6569 10.3431C31.1571 11.8434 32 13.8783 32 16ZM0 5.33333V42.6667C0 44.0812 0.561903 45.4377 1.5621 46.4379C2.56229 47.4381 3.91885 48 5.33333 48H42.6667C44.0812 48 45.4377 47.4381 46.4379 46.4379C47.4381 45.4377 48 44.0812 48 42.6667V5.33333C48 3.91885 47.4381 2.56229 46.4379 1.5621C45.4377 0.561903 44.0812 0 42.6667 0H5.33333C3.91885 0 2.56229 0.561903 1.5621 1.5621C0.561903 2.56229 0 3.91885 0 5.33333Z" fill="#53A4EC"/>
</svg>
