<svg width="48" height="48" viewBox="0 0 48 48" fill="none" xmlns="http://www.w3.org/2000/svg">
<path fill-rule="evenodd" clip-rule="evenodd" d="M24 48C30.3652 48 36.4697 45.4714 40.9706 40.9706C45.4714 36.4697 48 30.3652 48 24C48 17.6348 45.4714 11.5303 40.9706 7.02944C36.4697 2.52856 30.3652 0 24 0C17.6348 0 11.5303 2.52856 7.02944 7.02944C2.52856 11.5303 0 17.6348 0 24C0 30.3652 2.52856 36.4697 7.02944 40.9706C11.5303 45.4714 17.6348 48 24 48ZM27 15C27 15.7956 26.6839 16.5587 26.1213 17.1213C25.5587 17.6839 24.7956 18 24 18C23.2044 18 22.4413 17.6839 21.8787 17.1213C21.3161 16.5587 21 15.7956 21 15C21 14.2044 21.3161 13.4413 21.8787 12.8787C22.4413 12.3161 23.2044 12 24 12C24.7956 12 25.5587 12.3161 26.1213 12.8787C26.6839 13.4413 27 14.2044 27 15ZM21 21C20.4033 21 19.831 21.2371 19.409 21.659C18.9871 22.081 18.75 22.6533 18.75 23.25C18.75 23.8467 18.9871 24.419 19.409 24.841C19.831 25.2629 20.4033 25.5 21 25.5H21.75V31.5H18.75C18.1533 31.5 17.581 31.7371 17.159 32.159C16.7371 32.581 16.5 33.1533 16.5 33.75C16.5 34.3467 16.7371 34.919 17.159 35.341C17.581 35.7629 18.1533 36 18.75 36H29.25C29.8467 36 30.419 35.7629 30.841 35.341C31.2629 34.919 31.5 34.3467 31.5 33.75C31.5 33.1533 31.2629 32.581 30.841 32.159C30.419 31.7371 29.8467 31.5 29.25 31.5H26.25V21H21Z" fill="#AD6E9D"/>
</svg>
