<svg width="40" height="38" viewBox="0 0 40 38" fill="none" xmlns="http://www.w3.org/2000/svg">
<path d="M20 28.4C20 26.48 21 24.68 22.4 23.48V23C22.4 18.12 26.8 14 32 14C35.3 14 38.26 15.66 40 18.12V4C40 2.93913 39.5786 1.92172 38.8284 1.17157C38.0783 0.421427 37.0609 0 36 0H4C1.78 0 0 1.78 0 4V28C0 29.0609 0.421427 30.0783 1.17157 30.8284C1.92172 31.5786 2.93913 32 4 32H20V28.4ZM4 4L20 14L36 4V8L20 18L4 8V4ZM37.6 26V23C37.6 20.2 34.8 18 32 18C29.2 18 26.4 20.2 26.4 23V26C25.2 26 24 27.2 24 28.4V35.4C24 36.8 25.2 38 26.4 38H37.4C38.8 38 40 36.8 40 35.6V28.6C40 27.2 38.8 26 37.6 26ZM35 26H29V23C29 21.4 30.4 20.4 32 20.4C33.6 20.4 35 21.4 35 23V26Z" fill="#53A4EC"/>
</svg>
